<svg width="264" height="99" viewBox="0 0 264 99" fill="none" xmlns="http://www.w3.org/2000/svg">
<rect x="61" y="1" width="202" height="48" rx="4" stroke="black" stroke-width="2"/>
<path d="M151.259 28.138H147.367L146.723 30H144.665L148.179 20.214H150.461L153.975 30H151.903L151.259 28.138ZM150.727 26.57L149.313 22.482L147.899 26.57H150.727ZM154.924 26.094C154.924 25.31 155.078 24.6147 155.386 24.008C155.704 23.4013 156.133 22.9347 156.674 22.608C157.216 22.2813 157.818 22.118 158.48 22.118C158.984 22.118 159.465 22.23 159.922 22.454C160.38 22.6687 160.744 22.958 161.014 23.322V19.64H163.002V30H161.014V28.852C160.772 29.2347 160.431 29.5427 159.992 29.776C159.554 30.0093 159.045 30.126 158.466 30.126C157.813 30.126 157.216 29.958 156.674 29.622C156.133 29.286 155.704 28.8147 155.386 28.208C155.078 27.592 154.924 26.8873 154.924 26.094ZM161.028 26.122C161.028 25.646 160.935 25.24 160.748 24.904C160.562 24.5587 160.31 24.2973 159.992 24.12C159.675 23.9333 159.334 23.84 158.97 23.84C158.606 23.84 158.27 23.9287 157.962 24.106C157.654 24.2833 157.402 24.5447 157.206 24.89C157.02 25.226 156.926 25.6273 156.926 26.094C156.926 26.5607 157.02 26.9713 157.206 27.326C157.402 27.6713 157.654 27.9373 157.962 28.124C158.28 28.3107 158.616 28.404 158.97 28.404C159.334 28.404 159.675 28.3153 159.992 28.138C160.31 27.9513 160.562 27.69 160.748 27.354C160.935 27.0087 161.028 26.598 161.028 26.122ZM164.553 26.094C164.553 25.31 164.707 24.6147 165.015 24.008C165.332 23.4013 165.761 22.9347 166.303 22.608C166.844 22.2813 167.446 22.118 168.109 22.118C168.613 22.118 169.093 22.23 169.551 22.454C170.008 22.6687 170.372 22.958 170.643 23.322V19.64H172.631V30H170.643V28.852C170.4 29.2347 170.059 29.5427 169.621 29.776C169.182 30.0093 168.673 30.126 168.095 30.126C167.441 30.126 166.844 29.958 166.303 29.622C165.761 29.286 165.332 28.8147 165.015 28.208C164.707 27.592 164.553 26.8873 164.553 26.094ZM170.657 26.122C170.657 25.646 170.563 25.24 170.377 24.904C170.19 24.5587 169.938 24.2973 169.621 24.12C169.303 23.9333 168.963 23.84 168.599 23.84C168.235 23.84 167.899 23.9287 167.591 24.106C167.283 24.2833 167.031 24.5447 166.835 24.89C166.648 25.226 166.555 25.6273 166.555 26.094C166.555 26.5607 166.648 26.9713 166.835 27.326C167.031 27.6713 167.283 27.9373 167.591 28.124C167.908 28.3107 168.244 28.404 168.599 28.404C168.963 28.404 169.303 28.3153 169.621 28.138C169.938 27.9513 170.19 27.69 170.377 27.354C170.563 27.0087 170.657 26.598 170.657 26.122ZM189.995 30H188.035L183.597 23.294V30H181.637V20.214H183.597L188.035 26.934V20.214H189.995V30ZM199.282 25.954C199.282 26.234 199.263 26.486 199.226 26.71H193.556C193.603 27.27 193.799 27.7087 194.144 28.026C194.489 28.3433 194.914 28.502 195.418 28.502C196.146 28.502 196.664 28.1893 196.972 27.564H199.086C198.862 28.3107 198.433 28.9267 197.798 29.412C197.163 29.888 196.384 30.126 195.46 30.126C194.713 30.126 194.041 29.9627 193.444 29.636C192.856 29.3 192.394 28.8287 192.058 28.222C191.731 27.6153 191.568 26.9153 191.568 26.122C191.568 25.3193 191.731 24.6147 192.058 24.008C192.385 23.4013 192.842 22.9347 193.43 22.608C194.018 22.2813 194.695 22.118 195.46 22.118C196.197 22.118 196.855 22.2767 197.434 22.594C198.022 22.9113 198.475 23.364 198.792 23.952C199.119 24.5307 199.282 25.198 199.282 25.954ZM197.252 25.394C197.243 24.89 197.061 24.4887 196.706 24.19C196.351 23.882 195.917 23.728 195.404 23.728C194.919 23.728 194.508 23.8773 194.172 24.176C193.845 24.4653 193.645 24.8713 193.57 25.394H197.252ZM211.604 22.244L209.336 30H207.222L205.808 24.582L204.394 30H202.266L199.984 22.244H201.972L203.344 28.152L204.828 22.244H206.9L208.356 28.138L209.728 22.244H211.604Z" fill="black"/>
<g filter="url(#filter0_dddddd_301_3953)">
<rect x="80" y="10" width="30" height="30" rx="7.63879" fill="#168B22"/>
</g>
<path d="M95.4297 19.75V30.25M90.1797 25H100.68" stroke="white" stroke-width="1.14582"/>
<defs>
<filter id="filter0_dddddd_301_3953" x="0" y="8.7037" width="190" height="211.296" filterUnits="userSpaceOnUse" color-interpolation-filters="sRGB">
<feFlood flood-opacity="0" result="BackgroundImageFix"/>
<feColorMatrix in="SourceAlpha" type="matrix" values="0 0 0 0 0 0 0 0 0 0 0 0 0 0 0 0 0 0 127 0" result="hardAlpha"/>
<feOffset dy="1.85185"/>
<feGaussianBlur stdDeviation="1.57407"/>
<feColorMatrix type="matrix" values="0 0 0 0 0.376471 0 0 0 0 0.235294 0 0 0 0 0.905882 0 0 0 0.0168519 0"/>
<feBlend mode="normal" in2="BackgroundImageFix" result="effect1_dropShadow_301_3953"/>
<feColorMatrix in="SourceAlpha" type="matrix" values="0 0 0 0 0 0 0 0 0 0 0 0 0 0 0 0 0 0 127 0" result="hardAlpha"/>
<feOffset dy="8.14815"/>
<feGaussianBlur stdDeviation="3.25926"/>
<feColorMatrix type="matrix" values="0 0 0 0 0.376471 0 0 0 0 0.235294 0 0 0 0 0.905882 0 0 0 0.0274815 0"/>
<feBlend mode="normal" in2="effect1_dropShadow_301_3953" result="effect2_dropShadow_301_3953"/>
<feColorMatrix in="SourceAlpha" type="matrix" values="0 0 0 0 0 0 0 0 0 0 0 0 0 0 0 0 0 0 127 0" result="hardAlpha"/>
<feOffset dy="20"/>
<feGaussianBlur stdDeviation="6.5"/>
<feColorMatrix type="matrix" values="0 0 0 0 0.376471 0 0 0 0 0.235294 0 0 0 0 0.905882 0 0 0 0.035 0"/>
<feBlend mode="normal" in2="effect2_dropShadow_301_3953" result="effect3_dropShadow_301_3953"/>
<feColorMatrix in="SourceAlpha" type="matrix" values="0 0 0 0 0 0 0 0 0 0 0 0 0 0 0 0 0 0 127 0" result="hardAlpha"/>
<feOffset dy="38.5185"/>
<feGaussianBlur stdDeviation="12.7407"/>
<feColorMatrix type="matrix" values="0 0 0 0 0.376471 0 0 0 0 0.235294 0 0 0 0 0.905882 0 0 0 0.0425185 0"/>
<feBlend mode="normal" in2="effect3_dropShadow_301_3953" result="effect4_dropShadow_301_3953"/>
<feColorMatrix in="SourceAlpha" type="matrix" values="0 0 0 0 0 0 0 0 0 0 0 0 0 0 0 0 0 0 127 0" result="hardAlpha"/>
<feOffset dy="64.8148"/>
<feGaussianBlur stdDeviation="23.4259"/>
<feColorMatrix type="matrix" values="0 0 0 0 0.376471 0 0 0 0 0.235294 0 0 0 0 0.905882 0 0 0 0.0531481 0"/>
<feBlend mode="normal" in2="effect4_dropShadow_301_3953" result="effect5_dropShadow_301_3953"/>
<feColorMatrix in="SourceAlpha" type="matrix" values="0 0 0 0 0 0 0 0 0 0 0 0 0 0 0 0 0 0 127 0" result="hardAlpha"/>
<feOffset dy="100"/>
<feGaussianBlur stdDeviation="40"/>
<feColorMatrix type="matrix" values="0 0 0 0 0.376471 0 0 0 0 0.235294 0 0 0 0 0.905882 0 0 0 0.07 0"/>
<feBlend mode="normal" in2="effect5_dropShadow_301_3953" result="effect6_dropShadow_301_3953"/>
<feBlend mode="normal" in="SourceGraphic" in2="effect6_dropShadow_301_3953" result="shape"/>
</filter>
</defs>
</svg>
