<svg width="242" height="184" viewBox="0 0 242 184" fill="none" xmlns="http://www.w3.org/2000/svg">
<path d="M7.53166 148.176C44.1629 82.9822 22.9373 100.283 0 35.4915C8.55871 1.28461 100.033 60.0682 123.245 27.4463C168.778 -36.5432 259.158 27.4456 217.049 57.2264C165.874 93.4189 283.807 157.429 225.265 140.124C177.389 125.972 204.04 202.501 87.2988 167.087C49.2981 185.196 -21.7733 200.331 7.53166 148.176Z" fill="#FB0000"/>
<path d="M19.8506 141.24C51.2695 84.713 33.0641 99.7139 13.3906 43.5361C20.7315 13.877 99.1896 64.8455 119.099 36.5606C158.152 -18.9217 235.672 36.56 199.555 62.3814C155.662 93.7622 256.814 149.262 206.602 134.258C165.538 121.987 188.397 188.342 88.2675 157.636C55.674 173.338 -5.28454 186.461 19.8506 141.24Z" fill="#FAFF00"/>
<path d="M50.2188 114.356C49.2188 114.356 48.6146 114.231 48.4062 113.981C48.1562 113.773 48.1146 113.335 48.2812 112.668C48.3229 112.46 48.5312 111.523 48.9062 109.856C49.2812 108.231 49.7396 106.231 50.2812 103.856C50.8646 101.523 51.4688 98.981 52.0938 96.231C52.7604 93.481 53.3854 90.8976 53.9688 88.481C53.0938 88.5643 52.4479 88.5018 52.0312 88.2935C51.6146 88.0435 51.4062 87.731 51.4062 87.356C51.4479 86.9393 51.6771 86.5226 52.0938 86.106C52.5521 85.6893 53.1979 85.3351 54.0312 85.0435C54.1979 84.9601 54.4479 84.8768 54.7812 84.7935C54.9896 84.0851 55.1771 83.356 55.3438 82.606C55.5104 81.981 55.6771 81.3143 55.8438 80.606C56.0104 79.8976 56.1771 79.2101 56.3438 78.5435L60.7188 59.856C60.9688 58.8976 61.3438 58.1893 61.8438 57.731C62.3854 57.231 63.3646 56.8143 64.7812 56.481C65.9479 56.1893 66.7604 56.0851 67.2188 56.1685C67.6771 56.2101 67.8854 56.3351 67.8438 56.5435C67.7188 57.0018 67.4062 58.106 66.9062 59.856C66.4062 61.606 65.8021 63.7518 65.0938 66.2935C64.4271 68.7935 63.6979 71.5643 62.9062 74.606C62.1146 77.606 61.3438 80.5851 60.5938 83.5435C63.0938 83.1685 66.1354 82.856 69.7188 82.606C71.0938 82.4393 72.4271 82.3351 73.7188 82.2935C75.0521 82.2518 76.3229 82.2518 77.5312 82.2935C78.1146 80.0435 78.6771 77.7935 79.2188 75.5435C79.8021 73.2935 80.3438 71.2101 80.8438 69.2935C81.3438 67.3768 81.7812 65.6893 82.1562 64.231C82.5729 62.731 82.8854 61.6268 83.0938 60.9185C83.3438 60.1268 83.5729 59.481 83.7812 58.981C84.0312 58.481 84.3021 58.0851 84.5938 57.7935C84.9271 57.5018 85.3021 57.2935 85.7188 57.1685C86.1354 57.0435 86.6146 56.9393 87.1562 56.856C87.4479 56.856 87.8021 56.8351 88.2188 56.7935C88.5521 56.7935 88.9479 56.7935 89.4062 56.7935C89.8646 56.7518 90.3854 56.7726 90.9688 56.856C89.3854 61.106 87.9062 65.4185 86.5312 69.7935C85.1979 74.1268 83.9479 78.356 82.7812 82.481C83.5312 82.5643 84.1771 82.6268 84.7188 82.6685C85.3021 82.7101 85.7604 82.7726 86.0938 82.856C87.0938 83.0226 87.7188 83.2935 87.9688 83.6685C88.2604 84.0435 88.1771 84.5851 87.7188 85.2935L86.9688 86.231C86.7188 86.5643 86.4062 86.9601 86.0312 87.4185C85.6562 87.8351 85.1771 88.3143 84.5938 88.856C84.2604 88.731 83.9062 88.606 83.5312 88.481C83.1979 88.356 82.8646 88.231 82.5312 88.106C82.1146 87.981 81.7188 87.856 81.3438 87.731C81.0521 88.731 80.7812 89.7101 80.5312 90.6685C80.2812 91.5851 80.0521 92.5226 79.8438 93.481C79.3438 95.5226 78.8646 97.6268 78.4062 99.7935C78.0312 101.668 77.6354 103.731 77.2188 105.981C76.8438 108.273 76.5521 110.523 76.3438 112.731C76.0104 112.898 75.6771 113.002 75.3438 113.043C75.0104 113.127 74.7188 113.189 74.4688 113.231C74.1771 113.273 73.8854 113.314 73.5938 113.356H73.5312H73.4062H73.2812C73.1146 113.356 72.9479 113.356 72.7812 113.356C72.6146 113.356 72.4479 113.314 72.2812 113.231C72.0729 113.189 71.8646 113.127 71.6562 113.043C71.4479 112.96 71.2396 112.877 71.0312 112.793C70.8646 112.752 70.6771 112.668 70.4688 112.543C70.8021 111.168 71.0521 109.877 71.2188 108.668C71.4271 107.46 71.5729 106.398 71.6562 105.481C71.7812 104.398 71.8646 103.439 71.9062 102.606C71.9479 101.523 71.8229 100.335 71.5312 99.0435C71.2812 97.7518 70.8646 96.481 70.2812 95.231C69.7396 93.981 69.0521 92.8143 68.2188 91.731C67.4271 90.6476 66.5104 89.731 65.4688 88.981C64.4271 88.2726 63.4271 87.8143 62.4688 87.606C61.5521 87.3976 60.6146 87.3351 59.6562 87.4185C59.3646 88.6685 59.0938 89.8768 58.8438 91.0435C58.5938 92.2101 58.3854 93.3351 58.2188 94.4185C57.7604 96.8351 57.3229 99.1893 56.9062 101.481C56.5729 103.439 56.2188 105.46 55.8438 107.543C55.5104 109.668 55.2604 111.481 55.0938 112.981C54.4271 113.314 53.8021 113.564 53.2188 113.731C52.6354 113.939 52.1146 114.085 51.6562 114.168C51.1562 114.293 50.6771 114.356 50.2188 114.356ZM74.9688 86.606C73.5104 86.4393 72.1146 86.356 70.7812 86.356C69.4896 86.3143 68.3438 86.2935 67.3438 86.2935C68.1771 86.7518 68.9062 87.356 69.5312 88.106C70.1979 88.856 70.8854 89.7101 71.5938 90.6685C72.2604 91.5435 72.8021 92.5018 73.2188 93.5435C73.6354 94.5851 73.9896 95.5851 74.2812 96.5435C74.6146 94.7935 74.9688 93.0851 75.3438 91.4185C75.7188 89.7518 76.0729 88.1893 76.4062 86.731C76.1562 86.6893 75.9062 86.6685 75.6562 86.6685C75.4479 86.6268 75.2188 86.606 74.9688 86.606ZM108.844 92.606C108.427 94.1893 107.865 95.6685 107.156 97.0435C106.448 98.4185 105.594 99.606 104.594 100.606C103.635 101.606 102.531 102.377 101.281 102.918C100.073 103.502 98.7396 103.793 97.2812 103.793C95.5729 103.793 94.2188 103.418 93.2188 102.668C92.2604 101.96 91.5312 101.064 91.0312 99.981C90.5729 98.8976 90.3021 97.7101 90.2188 96.4185C90.0938 95.1268 90.0312 93.9185 90.0312 92.7935C90.0312 92.0018 90.1354 91.1268 90.3438 90.1685C90.5104 89.2101 90.7604 88.231 91.0938 87.231C91.4271 86.231 91.8438 85.231 92.3438 84.231C92.8854 83.231 93.5104 82.3143 94.2188 81.481C94.4688 80.7726 94.8438 80.1476 95.3438 79.606C95.8854 79.0643 96.4896 78.6268 97.1562 78.2935C97.8646 77.9185 98.6146 77.6476 99.4062 77.481C100.198 77.2726 100.969 77.1685 101.719 77.1685C101.844 77.1685 101.948 77.1893 102.031 77.231C102.156 77.2726 102.281 77.3143 102.406 77.356C102.948 77.3976 103.615 77.606 104.406 77.981C105.24 78.356 106.031 78.9185 106.781 79.6685C107.573 80.4185 108.24 81.3768 108.781 82.5435C109.323 83.6685 109.594 85.0435 109.594 86.6685C109.594 87.0018 109.573 87.4185 109.531 87.9185C109.49 88.3768 109.448 88.7726 109.406 89.106C110.365 88.731 111.365 88.2726 112.406 87.731C113.448 87.1893 114.448 86.6268 115.406 86.0435C116.406 85.4185 117.323 84.7935 118.156 84.1685C118.99 83.5435 119.656 82.981 120.156 82.481C120.573 82.106 120.927 81.8976 121.219 81.856C121.51 81.8143 121.719 81.8976 121.844 82.106C121.969 82.3143 121.99 82.606 121.906 82.981C121.823 83.356 121.594 83.7726 121.219 84.231C121.01 84.481 120.469 84.981 119.594 85.731C118.76 86.481 117.76 87.2935 116.594 88.1685C115.427 89.0435 114.156 89.8976 112.781 90.731C111.406 91.5643 110.094 92.1893 108.844 92.606ZM98.2812 83.106C98.1562 83.481 98.0938 83.8768 98.0938 84.2935C98.0938 84.9601 98.1354 85.6685 98.2188 86.4185C98.3021 87.1268 98.5104 87.7726 98.8438 88.356C99.1771 88.9393 99.6979 89.4393 100.406 89.856C101.156 90.231 102.177 90.4185 103.469 90.4185C103.677 90.4185 103.885 90.4185 104.094 90.4185C104.302 90.3768 104.51 90.3351 104.719 90.2935C104.844 89.7518 104.948 89.2726 105.031 88.856C105.156 88.3976 105.219 88.0018 105.219 87.6685C105.302 86.8768 105.302 86.0643 105.219 85.231C105.135 84.3976 104.969 83.6476 104.719 82.981C104.51 82.2726 104.219 81.7101 103.844 81.2935C103.51 80.8351 103.094 80.606 102.594 80.606C101.802 80.606 101.031 80.8351 100.281 81.2935C99.5729 81.7101 98.9062 82.3143 98.2812 83.106ZM94.2812 94.106C94.2812 94.856 94.3229 95.606 94.4062 96.356C94.4896 97.0643 94.6562 97.7101 94.9062 98.2935C95.1562 98.8351 95.4896 99.2935 95.9062 99.6685C96.3229 100.002 96.8646 100.168 97.5312 100.168C98.2812 100.168 98.9688 100.002 99.5938 99.6685C100.219 99.2935 100.781 98.8351 101.281 98.2935C101.781 97.7101 102.219 97.0643 102.594 96.356C103.01 95.606 103.365 94.8351 103.656 94.0435C103.365 94.0851 103.073 94.1268 102.781 94.1685C102.531 94.1685 102.24 94.1685 101.906 94.1685C100.323 94.1685 98.9479 93.7101 97.7812 92.7935C96.6562 91.8351 95.7812 90.6268 95.1562 89.1685C94.9062 90.0435 94.6979 90.8976 94.5312 91.731C94.3646 92.5643 94.2812 93.356 94.2812 94.106ZM138.594 86.731C138.76 86.481 138.969 86.3351 139.219 86.2935C139.51 86.2101 139.74 86.231 139.906 86.356C140.073 86.481 140.156 86.6893 140.156 86.981C140.198 87.2726 140.094 87.6685 139.844 88.1685C139.01 89.7518 137.906 91.4601 136.531 93.2935C135.198 95.1268 133.781 96.856 132.281 98.481C130.781 100.064 129.323 101.377 127.906 102.418C126.49 103.46 125.302 103.981 124.344 103.981C122.969 103.981 121.823 103.71 120.906 103.168C119.99 102.627 119.26 101.96 118.719 101.168C118.219 100.377 117.865 99.5226 117.656 98.606C117.448 97.6476 117.385 96.7726 117.469 95.981C117.51 95.3143 117.656 94.1268 117.906 92.4185C118.156 90.6685 118.49 88.6685 118.906 86.4185C119.323 84.1268 119.781 81.6893 120.281 79.106C120.823 76.481 121.385 73.9601 121.969 71.5435C121.26 71.6268 120.552 71.7101 119.844 71.7935C119.135 71.8768 118.49 71.9185 117.906 71.9185C116.573 71.9185 115.323 71.7726 114.156 71.481C112.948 71.1476 112.052 70.8351 111.469 70.5435C111.135 70.3768 110.99 70.1476 111.031 69.856C111.073 69.5226 111.198 69.2101 111.406 68.9185C111.615 68.5851 111.885 68.3143 112.219 68.106C112.51 67.856 112.781 67.731 113.031 67.731C113.823 67.8143 114.677 67.8976 115.594 67.981C116.51 68.0226 117.51 68.0226 118.594 67.981C119.385 67.9393 120.135 67.8768 120.844 67.7935C121.594 67.7101 122.323 67.606 123.031 67.481C123.573 65.481 124.094 63.7518 124.594 62.2935C125.135 60.7935 125.615 59.7518 126.031 59.1685C126.156 58.9601 126.427 58.7935 126.844 58.6685C127.302 58.5018 127.781 58.3976 128.281 58.356C128.781 58.2726 129.26 58.2726 129.719 58.356C130.177 58.3976 130.51 58.5435 130.719 58.7935C130.927 59.1268 131.01 59.981 130.969 61.356C130.927 62.731 130.698 64.481 130.281 66.606C132.031 66.606 133.573 66.7101 134.906 66.9185C136.281 67.0851 137.448 67.2935 138.406 67.5435C139.365 67.7518 140.135 67.981 140.719 68.231C141.302 68.4393 141.74 68.5851 142.031 68.6685C142.323 68.7518 142.469 68.9601 142.469 69.2935C142.51 69.6268 142.448 69.981 142.281 70.356C142.156 70.6893 141.927 70.981 141.594 71.231C141.26 71.481 140.885 71.5643 140.469 71.481C140.052 71.4393 139.573 71.356 139.031 71.231C138.531 71.106 137.906 71.0018 137.156 70.9185C136.448 70.8351 135.594 70.7518 134.594 70.6685C133.594 70.5851 132.427 70.5435 131.094 70.5435C130.844 70.5435 130.552 70.5643 130.219 70.606C129.927 70.606 129.615 70.606 129.281 70.606C129.115 71.2726 128.948 71.9393 128.781 72.606C128.656 73.231 128.469 73.8976 128.219 74.606C127.677 76.2726 127.052 78.0851 126.344 80.0435C125.719 81.7518 124.969 83.7101 124.094 85.9185C123.219 88.1268 122.24 90.481 121.156 92.981C120.906 94.7726 120.927 96.1476 121.219 97.106C121.552 98.0226 121.948 98.6893 122.406 99.106C122.948 99.5643 123.615 99.8143 124.406 99.856C125.031 99.9393 125.781 99.731 126.656 99.231C127.573 98.6893 128.51 97.981 129.469 97.106C130.427 96.231 131.385 95.2726 132.344 94.231C133.344 93.1893 134.26 92.1685 135.094 91.1685C135.927 90.1685 136.656 89.2726 137.281 88.481C137.906 87.6476 138.344 87.0643 138.594 86.731Z" fill="black"/>
<path d="M74.75 147.021C74.5391 146.88 74.4336 146.728 74.4336 146.563C74.4102 146.399 74.4453 146.235 74.5391 146.071C74.6328 145.884 74.7734 145.696 74.9609 145.509C75.1484 145.345 75.3711 144.923 75.6289 144.243C75.8867 143.587 76.1562 142.79 76.4375 141.853C76.7422 140.892 77.0352 139.849 77.3164 138.724C77.6211 137.599 77.9023 136.497 78.1602 135.419C78.418 134.341 78.6406 133.345 78.8281 132.431C79.0156 131.517 79.1562 130.79 79.25 130.251C79.3672 129.595 79.4961 128.88 79.6367 128.106C79.7539 127.427 79.8828 126.642 80.0234 125.751C80.1641 124.837 80.293 123.829 80.4102 122.728L83.2227 121.462C83.6211 121.274 83.9023 121.321 84.0664 121.603C84.2305 121.86 84.2305 122.411 84.0664 123.255C83.9961 123.677 83.8672 124.368 83.6797 125.329C83.4922 126.267 83.2695 127.31 83.0117 128.458C82.7773 129.583 82.5195 130.743 82.2383 131.938C81.9805 133.11 81.7227 134.153 81.4648 135.067C81.2305 135.935 80.9609 136.931 80.6562 138.056C80.1172 139.978 79.3672 142.603 78.4062 145.931C78.7344 146.493 79.3438 146.774 80.2344 146.774C81.2188 146.774 82.3555 146.399 83.6445 145.649C84.957 144.899 86.2227 143.774 87.4414 142.274C88.6602 140.774 89.7266 138.899 90.6406 136.649C91.5781 134.376 92.1641 131.728 92.3984 128.704C92.5156 127.063 92.4336 125.622 92.1523 124.38C91.8711 123.138 91.4375 122.095 90.8516 121.251C90.2891 120.407 89.5859 119.774 88.7422 119.353C87.9219 118.931 87.0078 118.72 86 118.72C83.6328 118.72 81.1836 119.704 78.6523 121.673L78.4766 118.755C79.0859 118.075 79.7773 117.56 80.5508 117.208C81.3477 116.833 82.0859 116.552 82.7656 116.364C83.5625 116.153 84.3711 116.036 85.1914 116.013C86.6914 116.013 88.1328 116.306 89.5156 116.892C90.9219 117.454 92.1289 118.321 93.1367 119.493C94.168 120.665 94.9531 122.142 95.4922 123.923C96.0312 125.681 96.2188 127.743 96.0547 130.11C95.9609 131.47 95.6797 132.888 95.2109 134.364C94.7656 135.817 94.168 137.247 93.418 138.653C92.6914 140.06 91.8242 141.396 90.8164 142.661C89.8086 143.927 88.707 145.028 87.5117 145.966C86.3164 146.927 85.0391 147.677 83.6797 148.216C82.3203 148.778 80.9141 149.06 79.4609 149.06C79.0156 149.036 78.5352 148.954 78.0195 148.813C77.5742 148.696 77.0703 148.497 76.5078 148.216C75.9453 147.935 75.3594 147.536 74.75 147.021ZM113.316 135.173C112.613 136.204 111.816 137.212 110.926 138.196C110.035 139.157 109.086 140.024 108.078 140.798C107.094 141.548 106.074 142.157 105.02 142.626C103.988 143.095 102.98 143.329 101.996 143.329C101.48 143.329 100.918 143.2 100.309 142.942C99.7227 142.708 99.1836 142.333 98.6914 141.817C98.1992 141.302 97.8008 140.634 97.4961 139.813C97.2148 138.993 97.1328 137.997 97.25 136.825C97.3438 135.864 97.6367 134.856 98.1289 133.802C98.6445 132.724 99.2656 131.739 99.9922 130.849C100.742 129.958 101.574 129.22 102.488 128.634C103.426 128.048 104.363 127.755 105.301 127.755C106.191 127.755 106.836 127.978 107.234 128.423C107.633 128.868 107.809 129.419 107.762 130.075C107.691 130.802 107.48 131.47 107.129 132.079C106.801 132.688 106.402 133.239 105.934 133.731C105.465 134.224 104.961 134.669 104.422 135.067C103.906 135.466 103.414 135.829 102.945 136.157C102.43 136.509 101.938 136.849 101.469 137.177C101 137.481 100.59 137.763 100.238 138.021C100.262 138.606 100.367 139.099 100.555 139.497C100.742 139.896 100.977 140.224 101.258 140.481C101.539 140.716 101.855 140.892 102.207 141.009C102.582 141.103 102.957 141.149 103.332 141.149C104.129 141.149 104.961 140.903 105.828 140.411C106.695 139.896 107.539 139.286 108.359 138.583C109.203 137.856 109.977 137.106 110.68 136.333C111.406 135.56 112.004 134.892 112.473 134.329C112.637 134.142 112.801 134.036 112.965 134.013C113.152 133.966 113.293 133.989 113.387 134.083C113.504 134.153 113.562 134.294 113.562 134.505C113.562 134.692 113.48 134.915 113.316 135.173ZM104.316 129.759C104.035 129.759 103.695 129.899 103.297 130.181C102.922 130.462 102.547 130.872 102.172 131.411C101.797 131.927 101.445 132.571 101.117 133.345C100.789 134.095 100.543 134.962 100.379 135.946C100.66 135.735 100.965 135.524 101.293 135.313C101.621 135.079 101.949 134.833 102.277 134.575C103.285 133.802 103.988 133.122 104.387 132.536C104.785 131.95 105.008 131.446 105.055 131.024C105.102 130.579 105.055 130.263 104.914 130.075C104.773 129.864 104.574 129.759 104.316 129.759ZM128.82 135.489C128.492 135.958 128.07 136.544 127.555 137.247C127.039 137.927 126.5 138.618 125.938 139.321C125.398 140.001 124.859 140.634 124.32 141.22C123.805 141.782 123.371 142.181 123.02 142.415C122.785 142.556 122.516 142.673 122.211 142.767C121.906 142.86 121.59 142.919 121.262 142.942C120.957 142.966 120.664 142.942 120.383 142.872C120.102 142.825 119.855 142.731 119.645 142.591C119.434 142.427 119.258 142.192 119.117 141.888C119 141.63 118.883 141.29 118.766 140.868C118.672 140.446 118.637 139.919 118.66 139.286C118.098 140.224 117.477 140.95 116.797 141.466C116.117 141.958 115.473 142.321 114.863 142.556C114.16 142.813 113.457 142.966 112.754 143.013C112.426 143.013 112.074 142.896 111.699 142.661C111.324 142.45 111.008 142.11 110.75 141.642C110.492 141.149 110.328 140.528 110.258 139.778C110.188 139.005 110.281 138.091 110.539 137.036C110.867 135.606 111.383 134.306 112.086 133.134C112.812 131.962 113.598 130.966 114.441 130.146C115.285 129.302 116.117 128.669 116.938 128.247C117.758 127.825 118.438 127.638 118.977 127.685C119.609 127.802 120.125 127.989 120.523 128.247C120.852 128.481 121.062 128.833 121.156 129.302C121.273 129.747 121.086 130.345 120.594 131.095C120.922 131.024 121.191 130.978 121.402 130.954C121.637 130.931 121.812 130.919 121.93 130.919C122.07 130.919 122.164 130.931 122.211 130.954C122.234 131.001 122.246 131.106 122.246 131.271C122.246 131.411 122.211 131.681 122.141 132.079C122.07 132.478 121.965 133.017 121.824 133.696C121.684 134.376 121.496 135.255 121.262 136.333C121.215 136.544 121.168 136.743 121.121 136.931C121.098 137.095 121.062 137.271 121.016 137.458C120.992 137.622 120.957 137.821 120.91 138.056C120.863 138.29 120.805 138.583 120.734 138.935C120.711 139.146 120.699 139.38 120.699 139.638C120.723 139.872 120.77 140.095 120.84 140.306C120.91 140.517 121.016 140.692 121.156 140.833C121.32 140.95 121.543 141.009 121.824 141.009C122.059 141.009 122.363 140.868 122.738 140.587C123.113 140.282 123.512 139.907 123.934 139.462C124.355 138.993 124.789 138.489 125.234 137.95C125.703 137.388 126.137 136.849 126.535 136.333C126.934 135.817 127.285 135.36 127.59 134.962C127.918 134.563 128.152 134.271 128.293 134.083C128.48 133.872 128.668 133.755 128.855 133.731C129.043 133.685 129.184 133.731 129.277 133.872C129.371 134.013 129.383 134.224 129.312 134.505C129.266 134.786 129.102 135.114 128.82 135.489ZM118.52 137.036C118.637 136.567 118.777 136.017 118.941 135.384C119.105 134.751 119.246 134.142 119.363 133.556C119.48 132.97 119.562 132.489 119.609 132.114C119.68 131.716 119.668 131.528 119.574 131.552C119.457 131.575 119.328 131.61 119.188 131.657C119.07 131.704 118.918 131.739 118.73 131.763C118.543 131.786 118.355 131.821 118.168 131.868C118.355 131.493 118.461 131.188 118.484 130.954C118.531 130.696 118.543 130.497 118.52 130.356C118.496 130.192 118.449 130.063 118.379 129.97C118.121 129.759 117.664 129.935 117.008 130.497C116.375 131.036 115.637 132.044 114.793 133.521C114.441 134.13 114.16 134.786 113.949 135.489C113.738 136.169 113.586 136.813 113.492 137.423C113.422 138.032 113.41 138.571 113.457 139.04C113.504 139.485 113.598 139.778 113.738 139.919C113.996 140.177 114.289 140.306 114.617 140.306C114.945 140.282 115.273 140.188 115.602 140.024C115.953 139.837 116.293 139.603 116.621 139.321C116.973 139.04 117.277 138.747 117.535 138.442C117.816 138.138 118.039 137.856 118.203 137.599C118.391 137.341 118.496 137.153 118.52 137.036ZM125.938 141.923C126.969 137.587 127.789 134.106 128.398 131.481C129.031 128.856 129.512 126.853 129.84 125.47C130.215 123.829 130.473 122.692 130.613 122.06C130.684 121.614 130.742 121.181 130.789 120.759C130.836 120.384 130.859 119.997 130.859 119.599C130.859 119.2 130.824 118.837 130.754 118.509C130.941 118.392 131.141 118.298 131.352 118.228C131.586 118.157 131.809 118.099 132.02 118.052C132.277 117.981 132.535 117.923 132.793 117.876C133.051 117.829 133.285 117.806 133.496 117.806C133.684 117.806 133.859 117.829 134.023 117.876C134.188 117.899 134.293 117.97 134.34 118.087C134.48 118.204 134.539 118.438 134.516 118.79C134.516 119.142 134.492 119.505 134.445 119.88C134.352 120.325 134.246 120.806 134.129 121.321C133.848 122.329 133.461 123.782 132.969 125.681C132.547 127.298 131.973 129.501 131.246 132.29C130.543 135.079 129.652 138.595 128.574 142.837C128.457 142.954 128.316 143.036 128.152 143.083C127.988 143.13 127.836 143.153 127.695 143.153C127.531 143.153 127.355 143.142 127.168 143.118C127.004 143.071 126.84 143.001 126.676 142.907C126.535 142.813 126.395 142.685 126.254 142.521C126.113 142.38 126.008 142.181 125.938 141.923ZM139.297 141.29C139.438 141.384 139.613 141.431 139.824 141.431C140.059 141.431 140.281 141.384 140.492 141.29C140.727 141.196 140.938 141.067 141.125 140.903C141.336 140.739 141.488 140.528 141.582 140.271C141.676 140.013 141.676 139.649 141.582 139.181C141.488 138.688 141.336 138.173 141.125 137.634C140.938 137.071 140.727 136.509 140.492 135.946C140.258 135.384 140.059 134.868 139.895 134.399C139.754 134.048 139.637 133.72 139.543 133.415C139.449 133.157 139.355 132.911 139.262 132.677C139.191 132.419 139.133 132.243 139.086 132.149C138.969 132.337 138.758 132.642 138.453 133.063C138.172 133.485 137.855 133.931 137.504 134.399C137.176 134.845 136.859 135.267 136.555 135.665C136.25 136.04 136.039 136.298 135.922 136.438C135.734 136.649 135.547 136.778 135.359 136.825C135.195 136.849 135.055 136.813 134.938 136.72C134.82 136.603 134.75 136.45 134.727 136.263C134.727 136.052 134.82 135.806 135.008 135.524C135.148 135.337 135.359 135.044 135.641 134.646C135.922 134.224 136.203 133.802 136.484 133.38C136.766 132.935 137.023 132.548 137.258 132.22C137.492 131.868 137.621 131.657 137.645 131.587C137.691 131.399 137.621 131.153 137.434 130.849C137.27 130.544 137.246 130.192 137.363 129.794C137.457 129.466 137.668 129.091 137.996 128.669C138.324 128.224 138.711 127.825 139.156 127.474C139.602 127.122 140.059 126.864 140.527 126.7C140.996 126.513 141.418 126.513 141.793 126.7C142.098 126.888 142.344 127.099 142.531 127.333C142.719 127.544 142.789 127.767 142.742 128.001C142.695 128.118 142.625 128.271 142.531 128.458C142.438 128.646 142.297 128.88 142.109 129.161C141.922 129.419 141.652 129.759 141.301 130.181C141.371 130.72 141.465 131.212 141.582 131.657C141.723 132.103 141.852 132.489 141.969 132.817C142.109 133.216 142.262 133.579 142.426 133.907C142.637 134.329 142.859 134.763 143.094 135.208C143.328 135.653 143.539 136.099 143.727 136.544C143.914 136.966 144.066 137.364 144.184 137.739C144.301 138.114 144.336 138.431 144.289 138.688C144.219 139.087 144.008 139.567 143.656 140.13C143.328 140.692 142.906 141.243 142.391 141.782C141.898 142.298 141.324 142.743 140.668 143.118C140.035 143.493 139.367 143.681 138.664 143.681C138.172 143.681 137.691 143.528 137.223 143.224C136.777 142.919 136.391 142.567 136.062 142.169C135.758 141.747 135.523 141.337 135.359 140.938C135.219 140.54 135.207 140.235 135.324 140.024C135.465 139.743 135.594 139.521 135.711 139.356C135.828 139.192 136.004 139.005 136.238 138.794C136.332 138.724 136.449 138.642 136.59 138.548C136.707 138.478 136.871 138.407 137.082 138.337C137.293 138.267 137.539 138.185 137.82 138.091C138.055 138.817 138.266 139.392 138.453 139.813C138.641 140.212 138.793 140.528 138.91 140.763C139.051 141.021 139.18 141.196 139.297 141.29ZM164.645 116.083C164.879 116.036 165.125 116.013 165.383 116.013C165.594 116.013 165.816 116.036 166.051 116.083C166.309 116.13 166.543 116.224 166.754 116.364L161.41 136.157C161.34 136.415 161.129 136.673 160.777 136.931C160.426 137.188 160.051 137.399 159.652 137.563C159.277 137.704 158.938 137.786 158.633 137.81C158.352 137.81 158.234 137.692 158.281 137.458C158.375 137.083 158.586 136.169 158.914 134.716C159.055 134.083 159.23 133.31 159.441 132.396C159.652 131.458 159.898 130.333 160.18 129.021C160.484 127.708 160.836 126.185 161.234 124.45C161.633 122.692 162.09 120.688 162.605 118.438C162.629 118.274 162.652 118.11 162.676 117.946C162.699 117.829 162.699 117.7 162.676 117.56C162.676 117.419 162.652 117.313 162.605 117.243C162.793 117.032 163.004 116.856 163.238 116.716C163.473 116.552 163.695 116.423 163.906 116.329C164.164 116.235 164.41 116.153 164.645 116.083ZM159.23 139.813C159.84 139.72 160.332 139.778 160.707 139.989C161.082 140.177 161.246 140.54 161.199 141.079C161.176 141.384 161.047 141.677 160.812 141.958C160.578 142.216 160.297 142.45 159.969 142.661C159.664 142.872 159.336 143.036 158.984 143.153C158.656 143.271 158.363 143.329 158.105 143.329C157.613 143.329 157.191 143.224 156.84 143.013C156.488 142.802 156.336 142.462 156.383 141.993C156.406 141.688 156.512 141.419 156.699 141.185C156.863 140.927 157.074 140.704 157.332 140.517C157.613 140.329 157.918 140.177 158.246 140.06C158.574 139.942 158.902 139.86 159.23 139.813ZM173.609 116.083C173.844 116.036 174.09 116.013 174.348 116.013C174.559 116.013 174.781 116.036 175.016 116.083C175.273 116.13 175.508 116.224 175.719 116.364L170.375 136.157C170.305 136.415 170.094 136.673 169.742 136.931C169.391 137.188 169.016 137.399 168.617 137.563C168.242 137.704 167.902 137.786 167.598 137.81C167.316 137.81 167.199 137.692 167.246 137.458C167.34 137.083 167.551 136.169 167.879 134.716C168.02 134.083 168.195 133.31 168.406 132.396C168.617 131.458 168.863 130.333 169.145 129.021C169.449 127.708 169.801 126.185 170.199 124.45C170.598 122.692 171.055 120.688 171.57 118.438C171.594 118.274 171.617 118.11 171.641 117.946C171.664 117.829 171.664 117.7 171.641 117.56C171.641 117.419 171.617 117.313 171.57 117.243C171.758 117.032 171.969 116.856 172.203 116.716C172.438 116.552 172.66 116.423 172.871 116.329C173.129 116.235 173.375 116.153 173.609 116.083ZM168.195 139.813C168.805 139.72 169.297 139.778 169.672 139.989C170.047 140.177 170.211 140.54 170.164 141.079C170.141 141.384 170.012 141.677 169.777 141.958C169.543 142.216 169.262 142.45 168.934 142.661C168.629 142.872 168.301 143.036 167.949 143.153C167.621 143.271 167.328 143.329 167.07 143.329C166.578 143.329 166.156 143.224 165.805 143.013C165.453 142.802 165.301 142.462 165.348 141.993C165.371 141.688 165.477 141.419 165.664 141.185C165.828 140.927 166.039 140.704 166.297 140.517C166.578 140.329 166.883 140.177 167.211 140.06C167.539 139.942 167.867 139.86 168.195 139.813ZM182.574 116.083C182.809 116.036 183.055 116.013 183.312 116.013C183.523 116.013 183.746 116.036 183.98 116.083C184.238 116.13 184.473 116.224 184.684 116.364L179.34 136.157C179.27 136.415 179.059 136.673 178.707 136.931C178.355 137.188 177.98 137.399 177.582 137.563C177.207 137.704 176.867 137.786 176.562 137.81C176.281 137.81 176.164 137.692 176.211 137.458C176.305 137.083 176.516 136.169 176.844 134.716C176.984 134.083 177.16 133.31 177.371 132.396C177.582 131.458 177.828 130.333 178.109 129.021C178.414 127.708 178.766 126.185 179.164 124.45C179.562 122.692 180.02 120.688 180.535 118.438C180.559 118.274 180.582 118.11 180.605 117.946C180.629 117.829 180.629 117.7 180.605 117.56C180.605 117.419 180.582 117.313 180.535 117.243C180.723 117.032 180.934 116.856 181.168 116.716C181.402 116.552 181.625 116.423 181.836 116.329C182.094 116.235 182.34 116.153 182.574 116.083ZM177.16 139.813C177.77 139.72 178.262 139.778 178.637 139.989C179.012 140.177 179.176 140.54 179.129 141.079C179.105 141.384 178.977 141.677 178.742 141.958C178.508 142.216 178.227 142.45 177.898 142.661C177.594 142.872 177.266 143.036 176.914 143.153C176.586 143.271 176.293 143.329 176.035 143.329C175.543 143.329 175.121 143.224 174.77 143.013C174.418 142.802 174.266 142.462 174.312 141.993C174.336 141.688 174.441 141.419 174.629 141.185C174.793 140.927 175.004 140.704 175.262 140.517C175.543 140.329 175.848 140.177 176.176 140.06C176.504 139.942 176.832 139.86 177.16 139.813Z" fill="black"/>
</svg>
