<svg width="22" height="22" viewBox="0 0 22 22" fill="none" xmlns="http://www.w3.org/2000/svg">
<path fill-rule="evenodd" clip-rule="evenodd" d="M11.3983 16.3024C12.8008 15.5691 17.4154 12.8101 17.4154 8.25016C17.4154 4.70634 14.5425 1.8335 10.9987 1.8335C7.45487 1.8335 4.58203 4.70634 4.58203 8.25016C4.58203 12.8101 9.19656 15.5691 10.5991 16.3024C10.8516 16.4344 11.1458 16.4344 11.3983 16.3024ZM10.9987 11.0002C12.5175 11.0002 13.7487 9.76895 13.7487 8.25016C13.7487 6.73138 12.5175 5.50016 10.9987 5.50016C9.47992 5.50016 8.2487 6.73138 8.2487 8.25016C8.2487 9.76895 9.47992 11.0002 10.9987 11.0002Z" fill="#EB5757"/>
<path d="M16.5557 15.125C17.1189 15.5431 17.4154 16.0173 17.4154 16.5C17.4154 16.9827 17.1189 17.4569 16.5557 17.875C15.9925 18.2931 15.1825 18.6402 14.207 18.8816C13.2316 19.1229 12.1251 19.25 10.9987 19.25C9.87234 19.25 8.76582 19.1229 7.79037 18.8816C6.81491 18.6402 6.00488 18.2931 5.4417 17.875C4.87852 17.4569 4.58203 16.9827 4.58203 16.5C4.58203 16.0173 4.87852 15.5431 5.4417 15.125" stroke="#EB5757" stroke-width="2" stroke-linecap="round"/>
</svg>
