<svg width="253" height="99" viewBox="0 0 253 99" fill="none" xmlns="http://www.w3.org/2000/svg">
<rect x="50" y="1" width="202" height="48" rx="4" stroke="black" stroke-width="2"/>
<path d="M145.675 20.228L142.091 30H139.711L136.127 20.228H138.227L140.915 27.998L143.589 20.228H145.675ZM147.984 21.32C147.639 21.32 147.35 21.2127 147.116 20.998C146.892 20.774 146.78 20.4987 146.78 20.172C146.78 19.8453 146.892 19.5747 147.116 19.36C147.35 19.136 147.639 19.024 147.984 19.024C148.33 19.024 148.614 19.136 148.838 19.36C149.072 19.5747 149.188 19.8453 149.188 20.172C149.188 20.4987 149.072 20.774 148.838 20.998C148.614 21.2127 148.33 21.32 147.984 21.32ZM148.95 22.244V30H146.99V22.244H148.95ZM158.237 25.954C158.237 26.234 158.218 26.486 158.181 26.71H152.511C152.557 27.27 152.753 27.7087 153.099 28.026C153.444 28.3433 153.869 28.502 154.373 28.502C155.101 28.502 155.619 28.1893 155.927 27.564H158.041C157.817 28.3107 157.387 28.9267 156.753 29.412C156.118 29.888 155.339 30.126 154.415 30.126C153.668 30.126 152.996 29.9627 152.399 29.636C151.811 29.3 151.349 28.8287 151.013 28.222C150.686 27.6153 150.523 26.9153 150.523 26.122C150.523 25.3193 150.686 24.6147 151.013 24.008C151.339 23.4013 151.797 22.9347 152.385 22.608C152.973 22.2813 153.649 22.118 154.415 22.118C155.152 22.118 155.81 22.2767 156.389 22.594C156.977 22.9113 157.429 23.364 157.747 23.952C158.073 24.5307 158.237 25.198 158.237 25.954ZM156.207 25.394C156.197 24.89 156.015 24.4887 155.661 24.19C155.306 23.882 154.872 23.728 154.359 23.728C153.873 23.728 153.463 23.8773 153.127 24.176C152.8 24.4653 152.599 24.8713 152.525 25.394H156.207ZM170.559 22.244L168.291 30H166.177L164.763 24.582L163.349 30H161.221L158.939 22.244H160.927L162.299 28.152L163.783 22.244H165.855L167.311 28.138L168.683 22.244H170.559ZM177.196 28.446H180.416V30H175.236V20.228H177.196V28.446ZM182.796 21.32C182.45 21.32 182.161 21.2127 181.928 20.998C181.704 20.774 181.592 20.4987 181.592 20.172C181.592 19.8453 181.704 19.5747 181.928 19.36C182.161 19.136 182.45 19.024 182.796 19.024C183.141 19.024 183.426 19.136 183.65 19.36C183.883 19.5747 184 19.8453 184 20.172C184 20.4987 183.883 20.774 183.65 20.998C183.426 21.2127 183.141 21.32 182.796 21.32ZM183.762 22.244V30H181.802V22.244H183.762ZM188.806 30.126C188.171 30.126 187.602 30.014 187.098 29.79C186.594 29.5567 186.193 29.244 185.894 28.852C185.605 28.46 185.446 28.026 185.418 27.55H187.392C187.429 27.8487 187.574 28.096 187.826 28.292C188.087 28.488 188.409 28.586 188.792 28.586C189.165 28.586 189.455 28.5113 189.66 28.362C189.875 28.2127 189.982 28.0213 189.982 27.788C189.982 27.536 189.851 27.3493 189.59 27.228C189.338 27.0973 188.932 26.9573 188.372 26.808C187.793 26.668 187.317 26.5233 186.944 26.374C186.58 26.2247 186.263 25.996 185.992 25.688C185.731 25.38 185.6 24.9647 185.6 24.442C185.6 24.0127 185.721 23.6207 185.964 23.266C186.216 22.9113 186.571 22.6313 187.028 22.426C187.495 22.2207 188.041 22.118 188.666 22.118C189.59 22.118 190.327 22.3513 190.878 22.818C191.429 23.2753 191.732 23.896 191.788 24.68H189.912C189.884 24.372 189.753 24.1293 189.52 23.952C189.296 23.7653 188.993 23.672 188.61 23.672C188.255 23.672 187.98 23.7373 187.784 23.868C187.597 23.9987 187.504 24.1807 187.504 24.414C187.504 24.6753 187.635 24.876 187.896 25.016C188.157 25.1467 188.563 25.282 189.114 25.422C189.674 25.562 190.136 25.7067 190.5 25.856C190.864 26.0053 191.177 26.2387 191.438 26.556C191.709 26.864 191.849 27.2747 191.858 27.788C191.858 28.236 191.732 28.6373 191.48 28.992C191.237 29.3467 190.883 29.6267 190.416 29.832C189.959 30.028 189.422 30.126 188.806 30.126ZM195.889 23.854V27.606C195.889 27.8673 195.95 28.0587 196.071 28.18C196.202 28.292 196.416 28.348 196.715 28.348H197.625V30H196.393C194.741 30 193.915 29.1973 193.915 27.592V23.854H192.991V22.244H193.915V20.326H195.889V22.244H197.625V23.854H195.889Z" fill="black"/>
<g filter="url(#filter0_dddddd_301_3961)">
<rect x="70" y="10" width="30" height="30" rx="7.63879" fill="#FFB800"/>
</g>
<path d="M83.798 31.7778C82.3683 25.1291 88.1395 22.896 91.1925 22.7217L92.1978 25.1045L89.6287 28.0104L90.0197 31.5556L88.791 33.4735L87.6182 33.1248L83.798 31.7778Z" fill="#D7D9E6"/>
<path d="M82.7084 19.8834C83.463 18.2926 85.7269 18.2926 86.4815 19.8834L87.1259 21.242C87.4232 21.8689 88.0125 22.3071 88.6984 22.4114L90.2764 22.6515C91.9625 22.9079 92.6466 24.9681 91.4488 26.1821L90.2066 27.4413C89.7374 27.9168 89.5241 28.5881 89.6327 29.2472L89.911 30.9356C90.194 32.6529 88.3752 33.9423 86.8484 33.1068L85.5974 32.4221C84.9728 32.0803 84.2171 32.0803 83.5926 32.4221L82.3415 33.1068C80.8147 33.9423 78.9959 32.6529 79.2789 30.9356L79.5572 29.2472C79.6658 28.5881 79.4525 27.9168 78.9834 27.4413L77.7411 26.1821C76.5433 24.9681 77.2274 22.9079 78.9135 22.6515L80.4915 22.4114C81.1774 22.3071 81.7667 21.8689 82.064 21.242L82.7084 19.8834Z" stroke="black" stroke-width="1.044" stroke-linecap="round" stroke-linejoin="round"/>
<defs>
<filter id="filter0_dddddd_301_3961" x="-10" y="8.7037" width="190" height="211.296" filterUnits="userSpaceOnUse" color-interpolation-filters="sRGB">
<feFlood flood-opacity="0" result="BackgroundImageFix"/>
<feColorMatrix in="SourceAlpha" type="matrix" values="0 0 0 0 0 0 0 0 0 0 0 0 0 0 0 0 0 0 127 0" result="hardAlpha"/>
<feOffset dy="1.85185"/>
<feGaussianBlur stdDeviation="1.57407"/>
<feColorMatrix type="matrix" values="0 0 0 0 0.376471 0 0 0 0 0.235294 0 0 0 0 0.905882 0 0 0 0.0168519 0"/>
<feBlend mode="normal" in2="BackgroundImageFix" result="effect1_dropShadow_301_3961"/>
<feColorMatrix in="SourceAlpha" type="matrix" values="0 0 0 0 0 0 0 0 0 0 0 0 0 0 0 0 0 0 127 0" result="hardAlpha"/>
<feOffset dy="8.14815"/>
<feGaussianBlur stdDeviation="3.25926"/>
<feColorMatrix type="matrix" values="0 0 0 0 0.376471 0 0 0 0 0.235294 0 0 0 0 0.905882 0 0 0 0.0274815 0"/>
<feBlend mode="normal" in2="effect1_dropShadow_301_3961" result="effect2_dropShadow_301_3961"/>
<feColorMatrix in="SourceAlpha" type="matrix" values="0 0 0 0 0 0 0 0 0 0 0 0 0 0 0 0 0 0 127 0" result="hardAlpha"/>
<feOffset dy="20"/>
<feGaussianBlur stdDeviation="6.5"/>
<feColorMatrix type="matrix" values="0 0 0 0 0.376471 0 0 0 0 0.235294 0 0 0 0 0.905882 0 0 0 0.035 0"/>
<feBlend mode="normal" in2="effect2_dropShadow_301_3961" result="effect3_dropShadow_301_3961"/>
<feColorMatrix in="SourceAlpha" type="matrix" values="0 0 0 0 0 0 0 0 0 0 0 0 0 0 0 0 0 0 127 0" result="hardAlpha"/>
<feOffset dy="38.5185"/>
<feGaussianBlur stdDeviation="12.7407"/>
<feColorMatrix type="matrix" values="0 0 0 0 0.376471 0 0 0 0 0.235294 0 0 0 0 0.905882 0 0 0 0.0425185 0"/>
<feBlend mode="normal" in2="effect3_dropShadow_301_3961" result="effect4_dropShadow_301_3961"/>
<feColorMatrix in="SourceAlpha" type="matrix" values="0 0 0 0 0 0 0 0 0 0 0 0 0 0 0 0 0 0 127 0" result="hardAlpha"/>
<feOffset dy="64.8148"/>
<feGaussianBlur stdDeviation="23.4259"/>
<feColorMatrix type="matrix" values="0 0 0 0 0.376471 0 0 0 0 0.235294 0 0 0 0 0.905882 0 0 0 0.0531481 0"/>
<feBlend mode="normal" in2="effect4_dropShadow_301_3961" result="effect5_dropShadow_301_3961"/>
<feColorMatrix in="SourceAlpha" type="matrix" values="0 0 0 0 0 0 0 0 0 0 0 0 0 0 0 0 0 0 127 0" result="hardAlpha"/>
<feOffset dy="100"/>
<feGaussianBlur stdDeviation="40"/>
<feColorMatrix type="matrix" values="0 0 0 0 0.376471 0 0 0 0 0.235294 0 0 0 0 0.905882 0 0 0 0.07 0"/>
<feBlend mode="normal" in2="effect5_dropShadow_301_3961" result="effect6_dropShadow_301_3961"/>
<feBlend mode="normal" in="SourceGraphic" in2="effect6_dropShadow_301_3961" result="shape"/>
</filter>
</defs>
</svg>
